<?xml version="1.0" encoding="utf-8"?><svg xml:space="preserve" viewBox="0 0 100 100" y="0" x="0" xmlns="http://www.w3.org/2000/svg" id="Layer_1" version="1.1" width="200px" height="200px" xmlns:xlink="http://www.w3.org/1999/xlink" style="width:100%;height:100%;background-size:initial;background-repeat-y:initial;background-repeat-x:initial;background-position-y:initial;background-position-x:initial;background-origin:initial;background-image:initial;background-color:rgb(241, 242, 243);background-clip:initial;background-attachment:initial;animation-play-state:paused" ><g class="ldl-scale" style="transform-origin:50% 50%;transform:rotate(0deg) scale(0.82, 0.82);animation-play-state:paused" ><path fill="#e15c64" d="M60.163 52.234v-4.468c0-1.419 1.292-2.612 2.999-2.768l11.975-2.376c4.396-.487 8.24 2.955 8.24 7.378s-3.844 7.865-8.24 7.378l-11.975-2.376c-1.707-.156-2.999-1.349-2.999-2.768z" style="fill:rgb(36, 112, 116);animation-play-state:paused" ></path>
<path fill="#e15c64" d="M53.147 59.918l3.869-2.234c1.229-.71 2.908-.187 3.896 1.213l8.045 9.183c2.62 3.564 1.561 8.614-2.269 10.825-3.831 2.212-8.733.604-10.51-3.447l-3.93-11.559c-.717-1.556-.33-3.271.899-3.981z" style="fill:rgb(36, 112, 116);animation-play-state:paused" ></path>
<path fill="#e15c64" d="M42.984 57.685l3.869 2.234c1.229.71 1.616 2.424.898 3.981l-3.93 11.559c-1.776 4.051-6.679 5.659-10.51 3.447-3.831-2.212-4.889-7.261-2.269-10.825l8.045-9.183c.989-1.401 2.668-1.923 3.897-1.213z" style="fill:rgb(36, 112, 116);animation-play-state:paused" ></path>
<path fill="#e15c64" d="M39.837 47.766v4.468c0 1.419-1.292 2.612-2.999 2.768l-11.975 2.376c-4.396.487-8.24-2.955-8.24-7.378s3.844-7.865 8.24-7.378l11.975 2.376c1.707.156 2.999 1.349 2.999 2.768z" style="fill:rgb(36, 112, 116);animation-play-state:paused" ></path>
<path fill="#e15c64" d="M46.853 40.082l-3.869 2.234c-1.229.71-2.908.187-3.896-1.213l-8.045-9.183c-2.62-3.564-1.561-8.614 2.269-10.825 3.831-2.212 8.733-.604 10.51 3.447l3.93 11.559c.717 1.556.33 3.271-.899 3.981z" style="fill:rgb(36, 112, 116);animation-play-state:paused" ></path>
<path fill="#e15c64" d="M57.016 42.315l-3.869-2.234c-1.229-.71-1.616-2.424-.898-3.981l3.93-11.559c1.776-4.051 6.679-5.659 10.51-3.447 3.831 2.212 4.889 7.261 2.269 10.825l-8.045 9.183c-.989 1.401-2.668 1.923-3.897 1.213z" style="fill:rgb(36, 112, 116);animation-play-state:paused" ></path>
<path fill="#f47e5f" d="M60.357 47.613l-3.112-5.39c-.989-1.712-.261-4.05 1.689-5.428l12.791-11.207c4.964-3.649 11.999-2.175 15.08 3.161 3.081 5.336.841 12.165-4.802 14.64l-16.101 5.474c-2.167 1.001-4.556.463-5.545-1.25z" style="fill:rgb(32, 70, 81);animation-play-state:paused" ></path>
<path fill="#f47e5f" d="M57.246 57.776l3.112-5.39c.989-1.712 3.377-2.251 5.545-1.251l16.101 5.474c5.643 2.475 7.883 9.304 4.802 14.64-3.081 5.336-10.115 6.811-15.08 3.161L58.935 63.204c-1.95-1.377-2.678-3.715-1.689-5.428z" style="fill:rgb(32, 70, 81);animation-play-state:paused" ></path>
<path fill="#f47e5f" d="M46.888 60.163h6.223c1.977 0 3.638 1.799 3.856 4.177l3.31 16.681C60.956 87.145 56.162 92.5 50 92.5c-6.162 0-10.956-5.355-10.278-11.479l3.31-16.681c.218-2.378 1.879-4.177 3.856-4.177z" style="fill:rgb(32, 70, 81);animation-play-state:paused" ></path>
<path fill="#f47e5f" d="M39.643 52.387l3.112 5.39c.989 1.712.261 4.05-1.689 5.428L28.274 74.411c-4.964 3.649-11.999 2.175-15.08-3.161-3.081-5.336-.841-12.165 4.802-14.64l16.101-5.474c2.168-1 4.557-.462 5.546 1.251z" style="fill:rgb(32, 70, 81);animation-play-state:paused" ></path>
<path fill="#f47e5f" d="M42.754 42.224l-3.112 5.39c-.989 1.712-3.377 2.251-5.545 1.251L17.996 43.39c-5.643-2.475-7.883-9.304-4.802-14.64 3.081-5.336 10.115-6.811 15.08-3.161l12.791 11.207c1.95 1.377 2.678 3.715 1.689 5.428z" style="fill:rgb(32, 70, 81);animation-play-state:paused" ></path>
<path fill="#f47e5f" d="M53.112 39.837h-6.223c-1.977 0-3.638-1.799-3.856-4.177l-3.31-16.681C39.044 12.855 43.838 7.5 50 7.5c6.162 0 10.956 5.355 10.278 11.479l-3.31 16.681c-.218 2.378-1.879 4.177-3.856 4.177z" style="fill:rgb(32, 70, 81);animation-play-state:paused" ></path>
<circle fill="#f7b26a" r="13.859" cy="50" cx="50" style="fill:rgb(21, 33, 43);animation-play-state:paused" ></circle>
<metadata xmlns:d="https://loading.io/stock/" style="animation-play-state:paused" ><d:name style="animation-play-state:paused" >flower</d:name>


<d:tags style="animation-play-state:paused" >flower,daisy,sunflower,blossom,bloom,floret</d:tags>


<d:license style="animation-play-state:paused" >by</d:license>


<d:slug style="animation-play-state:paused" >n3xfqt</d:slug></metadata></g><!-- generated by https://loading.io/ --></svg>