<?xml version="1.0"?><svg width="50px" height="50px" version="1.1" id="Layer_1" xmlns="http://www.w3.org/2000/svg" x="0" y="0" viewBox="0 0 100 100" xml:space="preserve"><path d="M91.133 39.117c-3.08-9.478-13.116-14.731-22.619-11.983-.192-10.005-8.348-18.06-18.399-18.06-9.966 0-18.063 7.922-18.386 17.809-9.575-2.909-19.756 2.358-22.862 11.917-3.08 9.479 1.952 19.627 11.256 22.99-5.726 8.207-3.863 19.518 4.269 25.426 8.063 5.858 19.269 4.208 25.343-3.601 6.036 7.982 17.369 9.705 25.501 3.797 8.063-5.858 9.957-17.026 4.406-25.215 9.456-3.274 14.597-13.52 11.491-23.08z" fill="#f47e5f" stroke="#323232" stroke-width="3.5" stroke-miterlimit="10"/><path d="M91.133 39.117c-3.041-9.358-12.861-14.582-22.256-12.069-4.785 26.149-24.64 47.02-50.244 53.276a18.31 18.31 0 0 0 5.759 6.891c8.063 5.858 19.269 4.208 25.343-3.601 6.036 7.982 17.369 9.705 25.501 3.797 8.063-5.858 9.957-17.026 4.406-25.215 9.456-3.273 14.597-13.519 11.491-23.079z" opacity=".2" stroke="#000" stroke-width="3.5" stroke-miterlimit="10"/><circle cx="50.115" cy="52.49" r="17.5" fill="#f4e6c8" stroke="#323232" stroke-width="3.5" stroke-miterlimit="10"/><metadata xmlns:d="https://loading.io/stock/">
<d:name>flower</d:name>
<d:tags>flower,daisy,sunflower,blossom,bloom,floret</d:tags>
<d:license>by</d:license>
<d:slug>j2gl39</d:slug>
</metadata></svg>