<?xml version="1.0" encoding="utf-8"?>
<!-- Generator: Adobe Illustrator 22.1.0, SVG Export Plug-In . SVG Version: 6.00 Build 0)  -->
<svg version="1.1" id="Layer_1" width="50px" height="50px" fill="#377dff" xmlns="http://www.w3.org/2000/svg" xmlns:xlink="http://www.w3.org/1999/xlink" x="0px" y="0px"
	 viewBox="0 0 512 512" style="enable-background:new 0 0 512 512;" xml:space="preserve">
<g>
	<path d="M223.6,166.9c0-19.6,16.3-27.2,42.5-27.2c38.1,0,86.6,11.7,124.7,32.2v-118C349.3,37.3,307.8,31,266.2,31
		C164.6,31,96.8,84.1,96.8,172.8c0,138.8,190.5,116.3,190.5,176.1c0,23.2-20.1,30.7-48.1,30.7c-41.5,0-95.1-17.1-137.2-40v112.9
		c43.3,18.7,89.9,28.4,137.1,28.5c104.2,0,176-44.8,176-135C415.2,196.5,223.6,223.3,223.6,166.9L223.6,166.9z"/>
</g>
</svg>
